<svg width="17" height="17" viewBox="0 0 17 17" fill="none" xmlns="http://www.w3.org/2000/svg">
<path fill-rule="evenodd" clip-rule="evenodd" d="M6.3843 10.4581C4.13016 10.4581 2.31055 8.63846 2.31055 6.38431C2.31055 4.13017 4.13016 2.31056 6.3843 2.31056C8.63845 2.31056 10.4581 4.13017 10.4581 6.38431C10.4581 8.63846 8.63845 10.4581 6.3843 10.4581ZM11.816 10.4581H11.1008L10.8473 10.2136C11.7345 9.18163 12.2686 7.84181 12.2686 6.38432C12.2686 3.13436 9.63427 0.5 6.38432 0.5C3.13436 0.5 0.5 3.13436 0.5 6.38432C0.5 9.63427 3.13436 12.2686 6.38432 12.2686C7.84181 12.2686 9.18163 11.7345 10.2136 10.8473L10.4581 11.1008V11.816L14.9845 16.3333L16.3333 14.9845L11.816 10.4581Z" fill="#797C80"/>
</svg>
